<?xml version="1.0" encoding="utf-8"?>
<!-- Generator: Adobe Illustrator 22.0.1, SVG Export Plug-In . SVG Version: 6.00 Build 0)  -->
<svg version="1.1" id="Layer_1" xmlns="http://www.w3.org/2000/svg" xmlns:xlink="http://www.w3.org/1999/xlink" x="0px" y="0px"
	 viewBox="0 0 32 32" style="enable-background:new 0 0 32 32;" xml:space="preserve">
<style type="text/css">
	.st0{fill:#FFFFFF;}
</style>
<g id="logos">
	<g>
		<path class="st0" d="M24,15.5c-3.4-5.6-6.6-11-7-11.5c-0.2-0.3-0.5-0.5-0.9-0.6H16l0,0h-0.1C15.6,3.5,15.2,3.7,15,4
			c-0.4,0.5-3.6,5.9-7,11.5c-3.9,6.4-8,13.1-8,13.1h4.2l10.4-17.1c0,0,0.7-1.2,1.4-1.2l0,0c0.6,0,1.4,1.2,1.4,1.2l10.4,17.1H32
			C32,28.6,27.8,21.9,24,15.5z"/>
	</g>
	<g>
		<path class="st0" d="M17.5,14.9h-3c-0.6,0-1.1,0.5-1.1,1.1s0.5,1.1,1.1,1.1h3c0.6,0,1.1-0.5,1.1-1.1S18.2,14.9,17.5,14.9z"/>
	</g>
</g>
</svg>
