<svg xmlns="http://www.w3.org/2000/svg" viewBox="0 0 334 66">
  <defs>
    <style>
      .text {
      font-size: 29px;
      stroke: #000;
      fill: #000;
      stroke-miterlimit: 10;
      stroke-width: 0.25px;
      font-family: HelveticaNeue-Thin, Helvetica Neue;
      letter-spacing: 0.04em;
      }

      .text-small {
      font-size: 25px;
      letter-spacing: 0.04em;
      }
    </style>
  </defs>
  <title>Arkane logo</title>
  <g>
    <text class="text" transform="translate(94 33.7) scale(0.97 1)">
      A
      <tspan class="text-small" x="18.26" y="0">RKANE</tspan>
      <tspan x="107.08" y="0">N</tspan>
      <tspan class="text-small" x="127.81" y="0">ETWORK</tspan>
    </text>
    <text class="text" transform="translate(94 65.7) scale(0.93 1)">
      <tspan class="text-small" x="0" y="0">Documentation</tspan>
    </text>
  </g>
  <g id="logos">
    <g class="path-a">
      <path fill="#000"
            d="M63.91,31.68C55.09,17.07,46.59,2.93,45.62,1.62A3.86,3.86,0,0,0,43.38,0S43.16,0,43,0H43c-.12,0-.34,0-.34,0a3.86,3.86,0,0,0-2.24,1.59c-1,1.31-9.47,15.45-18.29,30.06C12,48.46,1,66,1,66H12L39.41,21.05s1.88-3.17,3.58-3.12h0c1.69-.05,3.58,3.12,3.58,3.12L74,66H85S74.05,48.46,63.91,31.68Z"/>
    </g>
    <g class="path-dash">
      <path fill="#000" d="M47,30H39a3,3,0,0,0,0,6h8a3,3,0,0,0,0-6Z"/>
    </g>
  </g>
</svg>
