<?xml version="1.0" encoding="utf-8"?>
<svg version="1.1" xmlns="http://www.w3.org/2000/svg" x="0px" y="0px"
	 viewBox="0 0 100 100" xml:space="preserve">
<style type="text/css">
	.st0{fill:#EF4B89;}
  .center #big { transform: translateX(50px); }
</style>
<g id="big">
	<path d="M40.6,95.9C18.2,95.9,0,77.7,0,55.3s18.2-40.6,40.6-40.6s40.6,18.2,40.6,40.6S63,95.9,40.6,95.9z M40.6,18.7
		C20.4,18.7,4,35.1,4,55.3c0,20.2,16.4,36.6,36.6,36.6c20.2,0,36.6-16.4,36.6-36.6C77.2,35.1,60.8,18.7,40.6,18.7z"/>
</g>
<g id="small">
	<path class="st0" d="M73.7,60.9c0.2-1.1,0.3-2.1,0.4-3.1c-1,0.1-2,0.2-3.1,0.2c-13.8,0-25-11.2-25-25c0-3.7,0.8-7.2,2.3-10.4
		c-1-0.2-2-0.4-3.1-0.6l-1-0.1C42.8,25.3,42,29.1,42,33c0,16,13,29,29,29c0.9,0,1.7,0,2.5-0.1L73.7,60.9z"/>
	<path class="st0" d="M71,4c-8.2,0-15.5,3.4-20.8,8.8c1,0.2,2,0.5,2.9,0.8l1.6,0.5C59.1,10.3,64.8,8,71,8c13.8,0,25,11.2,25,25
		c0,9-4.7,16.8-11.8,21.2l0,1.6c0,1-0.1,2-0.2,3c9.5-4.8,16-14.6,16-25.9C100,17,87,4,71,4z"/>
</g>
</svg>
